<?xml version="1.0" encoding="UTF-8" standalone="no"?>
<!DOCTYPE svg PUBLIC "-//W3C//DTD SVG 1.1//EN"
 "http://www.w3.org/Graphics/SVG/1.1/DTD/svg11.dtd">
<!-- Generated by graphviz version 2.43.0 (0)
 -->
<!-- Title: /home/runner/work/rbps/rbps/docs/design Pages: 1 -->
<!--zoomable 94 -->

<svg id="main" version="1.1" xmlns="http://www.w3.org/2000/svg" xmlns:xlink="http://www.w3.org/1999/xlink" xml:space="preserve" onload="init(evt)">
<style type="text/css"><![CDATA[
.node, .edge {opacity: 0.7;}
.node.selected, .edge.selected {opacity: 1;}
.edge:hover path { stroke: red; }
.edge:hover polygon { stroke: red; fill: red; }
]]></style>

<defs>
  <circle id="rim" cx="0" cy="0" r="7"/>
  <circle id="rim2" cx="0" cy="0" r="3.5"/>
  <g id="zoomPlus">
    <use xlink:href="#rim" fill="#404040"><set attributeName="fill" to="#808080" begin="zoomplus.mouseover" end="zoomplus.mouseout"/></use>
    <path d="M-4,0h8M0,-4v8" fill="none" stroke="white" stroke-width="1.5" pointer-events="none"/>
  </g>
  <g id="zoomMin">
    <use xlink:href="#rim" fill="#404040"><set attributeName="fill" to="#808080" begin="zoomminus.mouseover" end="zoomminus.mouseout"/></use>
    <path d="M-4,0h8" fill="none" stroke="white" stroke-width="1.5" pointer-events="none"/>
  </g>
  <g id="arrowUp" transform="translate(30 24)">
    <use xlink:href="#rim"/>
    <path pointer-events="none" fill="none" stroke="white" stroke-width="1.5" d="M0,-3.0v7 M-2.5,-0.5L0,-3.0L2.5,-0.5"/>
  </g>
  <g id="arrowRight" transform="rotate(90) translate(36 -43)">
    <use xlink:href="#rim"/>
    <path pointer-events="none" fill="none" stroke="white" stroke-width="1.5" d="M0,-3.0v7 M-2.5,-0.5L0,-3.0L2.5,-0.5"/>
  </g>
  <g id="arrowDown" transform="rotate(180) translate(-30 -48)">
    <use xlink:href="#rim"/>
    <path pointer-events="none" fill="none" stroke="white" stroke-width="1.5" d="M0,-3.0v7 M-2.5,-0.5L0,-3.0L2.5,-0.5"/>
  </g>
  <g id="arrowLeft" transform="rotate(270) translate(-36 17)">
    <use xlink:href="#rim"/>
    <path pointer-events="none" fill="none" stroke="white" stroke-width="1.5" d="M0,-3.0v7 M-2.5,-0.5L0,-3.0L2.5,-0.5"/>
  </g>
  <g id="resetDef">
    <use xlink:href="#rim2" fill="#404040"><set attributeName="fill" to="#808080" begin="reset.mouseover" end="reset.mouseout"/></use>
  </g>
</defs>
<script type="application/ecmascript">
var viewWidth = 2481;
var viewHeight = 94;
var sectionId = 'dynsection-0';
</script>
<script type="application/ecmascript" xlink:href="svg.min.js"/>
<svg id="graph" class="graph">
<g id="viewport">
<title>/home/runner/work/rbps/rbps/docs/design</title>
<g id="clust1" class="cluster">
<title>clusterdir_49e56c817e5e54854c35e136979f97ca</title>
<g id="a_clust1"><a xlink:href="dir_49e56c817e5e54854c35e136979f97ca.html" target="_top" xlink:title="docs">
<polygon fill="#edf0f7" stroke="#404040" stroke-dasharray="5,2" points="8,-8 8,-78 2465,-78 2465,-8 8,-8"/>
<text text-anchor="middle" x="1236.5" y="-66" font-family="Helvetica,sans-Serif" font-size="10.00">docs</text>
</a>
</g>
</g>
<g id="clust2" class="cluster">
<title>clusterdir_033983e874f878e12401d15e491b683e</title>
<g id="a_clust2"><a xlink:href="dir_033983e874f878e12401d15e491b683e.html" target="_top">
<polygon fill="#edf0f7" stroke="#404040" stroke-width="2" points="16,-16 16,-51 2457,-51 2457,-16 16,-16"/>
</a>
</g>
</g>
<!-- dir_033983e874f878e12401d15e491b683e -->
<g id="node1" class="node">
<title>dir_033983e874f878e12401d15e491b683e</title>
<text text-anchor="middle" x="2424" y="-31" font-family="Helvetica,sans-Serif" font-size="10.00">design</text>
</g>
<!-- dir_123bde5529d95244538085d91b7bf056 -->
<g id="node2" class="node">
<title>dir_123bde5529d95244538085d91b7bf056</title>
<g id="a_node2"><a xlink:href="dir_123bde5529d95244538085d91b7bf056.html" target="_top" xlink:title="actuator&#45;models">
<polygon fill="#a2b4d6" stroke="#404040" points="2381.5,-43 2284.5,-43 2284.5,-24 2381.5,-24 2381.5,-43"/>
<text text-anchor="middle" x="2333" y="-31" font-family="Helvetica,sans-Serif" font-size="10.00">actuator&#45;models</text>
</a>
</g>
</g>
<!-- dir_93e8ed3fa5ab0d04053209eaa7837df9 -->
<g id="node3" class="node">
<title>dir_93e8ed3fa5ab0d04053209eaa7837df9</title>
<g id="a_node3"><a xlink:href="dir_93e8ed3fa5ab0d04053209eaa7837df9.html" target="_top" xlink:title="articulated&#45;bodies&#45;xpbd">
<polygon fill="#a2b4d6" stroke="#404040" points="2266.5,-43 2133.5,-43 2133.5,-24 2266.5,-24 2266.5,-43"/>
<text text-anchor="middle" x="2200" y="-31" font-family="Helvetica,sans-Serif" font-size="10.00">articulated&#45;bodies&#45;xpbd</text>
</a>
</g>
</g>
<!-- dir_7f536ff4d08a3f66af8f087e39a9270c -->
<g id="node4" class="node">
<title>dir_7f536ff4d08a3f66af8f087e39a9270c</title>
<g id="a_node4"><a xlink:href="dir_7f536ff4d08a3f66af8f087e39a9270c.html" target="_top" xlink:title="benchmark&#45;harness">
<polygon fill="#a2b4d6" stroke="#404040" points="2115.5,-43 2002.5,-43 2002.5,-24 2115.5,-24 2115.5,-43"/>
<text text-anchor="middle" x="2059" y="-31" font-family="Helvetica,sans-Serif" font-size="10.00">benchmark&#45;harness</text>
</a>
</g>
</g>
<!-- dir_600709b5d228a3ef235e5d688a5dc2d4 -->
<g id="node5" class="node">
<title>dir_600709b5d228a3ef235e5d688a5dc2d4</title>
<g id="a_node5"><a xlink:href="dir_600709b5d228a3ef235e5d688a5dc2d4.html" target="_top" xlink:title="broadphase&#45;bvh">
<polygon fill="#a2b4d6" stroke="#404040" points="1984.5,-43 1889.5,-43 1889.5,-24 1984.5,-24 1984.5,-43"/>
<text text-anchor="middle" x="1937" y="-31" font-family="Helvetica,sans-Serif" font-size="10.00">broadphase&#45;bvh</text>
</a>
</g>
</g>
<!-- dir_87e210b6142fd9f5b82ae24a9651ebea -->
<g id="node6" class="node">
<title>dir_87e210b6142fd9f5b82ae24a9651ebea</title>
<g id="a_node6"><a xlink:href="dir_87e210b6142fd9f5b82ae24a9651ebea.html" target="_top" xlink:title="collider&#45;completeness">
<polygon fill="#a2b4d6" stroke="#404040" points="1871.5,-43 1746.5,-43 1746.5,-24 1871.5,-24 1871.5,-43"/>
<text text-anchor="middle" x="1809" y="-31" font-family="Helvetica,sans-Serif" font-size="10.00">collider&#45;completeness</text>
</a>
</g>
</g>
<!-- dir_71b2a9c1eb94c4c53798fdafef698a09 -->
<g id="node7" class="node">
<title>dir_71b2a9c1eb94c4c53798fdafef698a09</title>
<g id="a_node7"><a xlink:href="dir_71b2a9c1eb94c4c53798fdafef698a09.html" target="_top" xlink:title="contact&#45;generation">
<polygon fill="#a2b4d6" stroke="#404040" points="1728.5,-43 1619.5,-43 1619.5,-24 1728.5,-24 1728.5,-43"/>
<text text-anchor="middle" x="1674" y="-31" font-family="Helvetica,sans-Serif" font-size="10.00">contact&#45;generation</text>
</a>
</g>
</g>
<!-- dir_939515e8f2bc19c361630621c940199e -->
<g id="node8" class="node">
<title>dir_939515e8f2bc19c361630621c940199e</title>
<g id="a_node8"><a xlink:href="dir_939515e8f2bc19c361630621c940199e.html" target="_top" xlink:title="convex&#45;hull">
<polygon fill="#a2b4d6" stroke="#404040" points="1601,-43 1527,-43 1527,-24 1601,-24 1601,-43"/>
<text text-anchor="middle" x="1564" y="-31" font-family="Helvetica,sans-Serif" font-size="10.00">convex&#45;hull</text>
</a>
</g>
</g>
<!-- dir_0949c07244176dea4e12a71c5f5f381e -->
<g id="node9" class="node">
<title>dir_0949c07244176dea4e12a71c5f5f381e</title>
<g id="a_node9"><a xlink:href="dir_0949c07244176dea4e12a71c5f5f381e.html" target="_top" xlink:title="heightmap">
<polygon fill="#a2b4d6" stroke="#404040" points="1508.5,-43 1439.5,-43 1439.5,-24 1508.5,-24 1508.5,-43"/>
<text text-anchor="middle" x="1474" y="-31" font-family="Helvetica,sans-Serif" font-size="10.00">heightmap</text>
</a>
</g>
</g>
<!-- dir_57ddfdf3360decb9d1e64bdbc7bc9a02 -->
<g id="node10" class="node">
<title>dir_57ddfdf3360decb9d1e64bdbc7bc9a02</title>
<g id="a_node10"><a xlink:href="dir_57ddfdf3360decb9d1e64bdbc7bc9a02.html" target="_top" xlink:title="multi&#45;world">
<polygon fill="#a2b4d6" stroke="#404040" points="1421.5,-43 1348.5,-43 1348.5,-24 1421.5,-24 1421.5,-43"/>
<text text-anchor="middle" x="1385" y="-31" font-family="Helvetica,sans-Serif" font-size="10.00">multi&#45;world</text>
</a>
</g>
</g>
<!-- dir_fde1ce16cc91be3bd34713a34dcc651c -->
<g id="node11" class="node">
<title>dir_fde1ce16cc91be3bd34713a34dcc651c</title>
<g id="a_node11"><a xlink:href="dir_fde1ce16cc91be3bd34713a34dcc651c.html" target="_top" xlink:title="openmp&#45;parallelization">
<polygon fill="#a2b4d6" stroke="#404040" points="1330,-43 1200,-43 1200,-24 1330,-24 1330,-43"/>
<text text-anchor="middle" x="1265" y="-31" font-family="Helvetica,sans-Serif" font-size="10.00">openmp&#45;parallelization</text>
</a>
</g>
</g>
<!-- dir_5c71c8ce6fecb85a958f49a74071c4b8 -->
<g id="node12" class="node">
<title>dir_5c71c8ce6fecb85a958f49a74071c4b8</title>
<g id="a_node12"><a xlink:href="dir_5c71c8ce6fecb85a958f49a74071c4b8.html" target="_top" xlink:title="python&#45;bindings">
<polygon fill="#a2b4d6" stroke="#404040" points="1181.5,-43 1086.5,-43 1086.5,-24 1181.5,-24 1181.5,-43"/>
<text text-anchor="middle" x="1134" y="-31" font-family="Helvetica,sans-Serif" font-size="10.00">python&#45;bindings</text>
</a>
</g>
</g>
<!-- dir_490b9d39cc24a4dea4261e3edb597041 -->
<g id="node13" class="node">
<title>dir_490b9d39cc24a4dea4261e3edb597041</title>
<g id="a_node13"><a xlink:href="dir_490b9d39cc24a4dea4261e3edb597041.html" target="_top" xlink:title="rendering">
<polygon fill="#a2b4d6" stroke="#404040" points="1068.5,-43 1005.5,-43 1005.5,-24 1068.5,-24 1068.5,-43"/>
<text text-anchor="middle" x="1037" y="-31" font-family="Helvetica,sans-Serif" font-size="10.00">rendering</text>
</a>
</g>
</g>
<!-- dir_84ee9673896689a23dbe9f842cec4572 -->
<g id="node14" class="node">
<title>dir_84ee9673896689a23dbe9f842cec4572</title>
<g id="a_node14"><a xlink:href="dir_84ee9673896689a23dbe9f842cec4572.html" target="_top" xlink:title="roadmap">
<polygon fill="#a2b4d6" stroke="#404040" points="987,-43 927,-43 927,-24 987,-24 987,-43"/>
<text text-anchor="middle" x="957" y="-31" font-family="Helvetica,sans-Serif" font-size="10.00">roadmap</text>
</a>
</g>
</g>
<!-- dir_9d3f8229b095c01680043221c4b20092 -->
<g id="node15" class="node">
<title>dir_9d3f8229b095c01680043221c4b20092</title>
<g id="a_node15"><a xlink:href="dir_9d3f8229b095c01680043221c4b20092.html" target="_top" xlink:title="ros2&#45;integration">
<polygon fill="#a2b4d6" stroke="#404040" points="908.5,-43 813.5,-43 813.5,-24 908.5,-24 908.5,-43"/>
<text text-anchor="middle" x="861" y="-31" font-family="Helvetica,sans-Serif" font-size="10.00">ros2&#45;integration</text>
</a>
</g>
</g>
<!-- dir_fb6ba511b94c55e33ba5f8d234dc686b -->
<g id="node16" class="node">
<title>dir_fb6ba511b94c55e33ba5f8d234dc686b</title>
<g id="a_node16"><a xlink:href="dir_fb6ba511b94c55e33ba5f8d234dc686b.html" target="_top" xlink:title="sample&#45;mpc">
<polygon fill="#a2b4d6" stroke="#404040" points="795.5,-43 718.5,-43 718.5,-24 795.5,-24 795.5,-43"/>
<text text-anchor="middle" x="757" y="-31" font-family="Helvetica,sans-Serif" font-size="10.00">sample&#45;mpc</text>
</a>
</g>
</g>
<!-- dir_136b4d3cd67e433ece63789c9830ad86 -->
<g id="node17" class="node">
<title>dir_136b4d3cd67e433ece63789c9830ad86</title>
<g id="a_node17"><a xlink:href="dir_136b4d3cd67e433ece63789c9830ad86.html" target="_top" xlink:title="scene&#45;format">
<polygon fill="#a2b4d6" stroke="#404040" points="700,-43 618,-43 618,-24 700,-24 700,-43"/>
<text text-anchor="middle" x="659" y="-31" font-family="Helvetica,sans-Serif" font-size="10.00">scene&#45;format</text>
</a>
</g>
</g>
<!-- dir_6c442e2f146e8df060f2d556713febcd -->
<g id="node18" class="node">
<title>dir_6c442e2f146e8df060f2d556713febcd</title>
<g id="a_node18"><a xlink:href="dir_6c442e2f146e8df060f2d556713febcd.html" target="_top" xlink:title="sensors&#45;gpu">
<polygon fill="#a2b4d6" stroke="#404040" points="600,-43 524,-43 524,-24 600,-24 600,-43"/>
<text text-anchor="middle" x="562" y="-31" font-family="Helvetica,sans-Serif" font-size="10.00">sensors&#45;gpu</text>
</a>
</g>
</g>
<!-- dir_3daadcb8067e7d1df36fc75da19c4060 -->
<g id="node19" class="node">
<title>dir_3daadcb8067e7d1df36fc75da19c4060</title>
<g id="a_node19"><a xlink:href="dir_3daadcb8067e7d1df36fc75da19c4060.html" target="_top" xlink:title="test&#45;app&#45;interactivity">
<polygon fill="#a2b4d6" stroke="#404040" points="506,-43 386,-43 386,-24 506,-24 506,-43"/>
<text text-anchor="middle" x="446" y="-31" font-family="Helvetica,sans-Serif" font-size="10.00">test&#45;app&#45;interactivity</text>
</a>
</g>
</g>
<!-- dir_e3d1d32253770975d978ac7198e9964e -->
<g id="node20" class="node">
<title>dir_e3d1d32253770975d978ac7198e9964e</title>
<g id="a_node20"><a xlink:href="dir_e3d1d32253770975d978ac7198e9964e.html" target="_top" xlink:title="ui&#45;overhaul">
<polygon fill="#a2b4d6" stroke="#404040" points="368,-43 296,-43 296,-24 368,-24 368,-43"/>
<text text-anchor="middle" x="332" y="-31" font-family="Helvetica,sans-Serif" font-size="10.00">ui&#45;overhaul</text>
</a>
</g>
</g>
<!-- dir_af43ed4f7d2c68e1e15f57358c976bf8 -->
<g id="node21" class="node">
<title>dir_af43ed4f7d2c68e1e15f57358c976bf8</title>
<g id="a_node21"><a xlink:href="dir_af43ed4f7d2c68e1e15f57358c976bf8.html" target="_top" xlink:title="visualizer&#45;refactor">
<polygon fill="#a2b4d6" stroke="#404040" points="278,-43 172,-43 172,-24 278,-24 278,-43"/>
<text text-anchor="middle" x="225" y="-31" font-family="Helvetica,sans-Serif" font-size="10.00">visualizer&#45;refactor</text>
</a>
</g>
</g>
<!-- dir_a81b614d252a040bb0164a5779f223ca -->
<g id="node22" class="node">
<title>dir_a81b614d252a040bb0164a5779f223ca</title>
<g id="a_node22"><a xlink:href="dir_a81b614d252a040bb0164a5779f223ca.html" target="_top" xlink:title="world&#45;snapshot&#45;restore">
<polygon fill="#a2b4d6" stroke="#404040" points="154,-43 24,-43 24,-24 154,-24 154,-43"/>
<text text-anchor="middle" x="89" y="-31" font-family="Helvetica,sans-Serif" font-size="10.00">world&#45;snapshot&#45;restore</text>
</a>
</g>
</g>
</g>
</svg>

<g id="navigator" transform="translate(0 0)" fill="#404254">
  <rect fill="#f2f5e9" fill-opacity="0.5" stroke="#606060" stroke-width=".5" x="0" y="0" width="60" height="60"/>
  <use id="zoomplus" xlink:href="#zoomPlus" x="17" y="9" onmousedown="handleZoom(evt,'in')"/>
  <use id="zoomminus" xlink:href="#zoomMin" x="42" y="9" onmousedown="handleZoom(evt,'out')"/>
  <use id="reset" xlink:href="#resetDef" x="30" y="36" onmousedown="handleReset()"/>
   <use id="arrowup" xlink:href="#arrowUp" x="0" y="0" onmousedown="handlePan(0,-1)"/>
  <use id="arrowright" xlink:href="#arrowRight" x="0" y="0" onmousedown="handlePan(1,0)"/>
  <use id="arrowdown" xlink:href="#arrowDown" x="0" y="0" onmousedown="handlePan(0,1)"/>
  <use id="arrowleft" xlink:href="#arrowLeft" x="0" y="0" onmousedown="handlePan(-1,0)"/>
</g>
<svg viewBox="0 0 15 15" width="100%" height="30px" preserveAspectRatio="xMaxYMin meet">
 <g id="arrow_out" transform="scale(0.3 0.3)">
  <a xlink:href="dir_033983e874f878e12401d15e491b683e_dep_org.svg" target="_base">
   <rect id="button" ry="5" rx="5" y="6" x="6" height="38" width="38"
        fill="#f2f5e9" fill-opacity="0.5" stroke="#606060" stroke-width="1.0"/>
   <path id="arrow"
     d="M 11.500037,31.436501 C 11.940474,20.09759 22.043105,11.32322 32.158766,21.979434 L 37.068811,17.246167 C 37.068811,17.246167 37.088388,32 37.088388,32 L 22.160133,31.978069 C 22.160133,31.978069 26.997745,27.140456 26.997745,27.140456 C 18.528582,18.264221 13.291696,25.230495 11.500037,31.436501 z"
     style="fill:#404040;"/>
  </a>
 </g>
</svg>

<style type='text/css'>
<![CDATA[
[data-mouse-over-selected='false'] { opacity: 0.7; }
[data-mouse-over-selected='true']  { opacity: 1.0; }
]]>
</style>
<script type="application/ecmascript"><![CDATA[
document.addEventListener('DOMContentLoaded', (event) => {
  highlightEdges();
  highlightAdjacentNodes();
});
]]></script>
</svg>
