<?xml version="1.0" encoding="UTF-8" standalone="no"?>
<!DOCTYPE svg PUBLIC "-//W3C//DTD SVG 1.1//EN"
 "http://www.w3.org/Graphics/SVG/1.1/DTD/svg11.dtd">
<!-- Generated by graphviz version 2.43.0 (0)
 -->
<!-- Title: features Pages: 1 -->
<!--zoomable 792 -->

<svg id="main" version="1.1" xmlns="http://www.w3.org/2000/svg" xmlns:xlink="http://www.w3.org/1999/xlink" xml:space="preserve" onload="init(evt)">
<style type="text/css"><![CDATA[
.node, .edge {opacity: 0.7;}
.node.selected, .edge.selected {opacity: 1;}
.edge:hover path { stroke: red; }
.edge:hover polygon { stroke: red; fill: red; }
]]></style>

<defs>
  <circle id="rim" cx="0" cy="0" r="7"/>
  <circle id="rim2" cx="0" cy="0" r="3.5"/>
  <g id="zoomPlus">
    <use xlink:href="#rim" fill="#404040"><set attributeName="fill" to="#808080" begin="zoomplus.mouseover" end="zoomplus.mouseout"/></use>
    <path d="M-4,0h8M0,-4v8" fill="none" stroke="white" stroke-width="1.5" pointer-events="none"/>
  </g>
  <g id="zoomMin">
    <use xlink:href="#rim" fill="#404040"><set attributeName="fill" to="#808080" begin="zoomminus.mouseover" end="zoomminus.mouseout"/></use>
    <path d="M-4,0h8" fill="none" stroke="white" stroke-width="1.5" pointer-events="none"/>
  </g>
  <g id="arrowUp" transform="translate(30 24)">
    <use xlink:href="#rim"/>
    <path pointer-events="none" fill="none" stroke="white" stroke-width="1.5" d="M0,-3.0v7 M-2.5,-0.5L0,-3.0L2.5,-0.5"/>
  </g>
  <g id="arrowRight" transform="rotate(90) translate(36 -43)">
    <use xlink:href="#rim"/>
    <path pointer-events="none" fill="none" stroke="white" stroke-width="1.5" d="M0,-3.0v7 M-2.5,-0.5L0,-3.0L2.5,-0.5"/>
  </g>
  <g id="arrowDown" transform="rotate(180) translate(-30 -48)">
    <use xlink:href="#rim"/>
    <path pointer-events="none" fill="none" stroke="white" stroke-width="1.5" d="M0,-3.0v7 M-2.5,-0.5L0,-3.0L2.5,-0.5"/>
  </g>
  <g id="arrowLeft" transform="rotate(270) translate(-36 17)">
    <use xlink:href="#rim"/>
    <path pointer-events="none" fill="none" stroke="white" stroke-width="1.5" d="M0,-3.0v7 M-2.5,-0.5L0,-3.0L2.5,-0.5"/>
  </g>
  <g id="resetDef">
    <use xlink:href="#rim2" fill="#404040"><set attributeName="fill" to="#808080" begin="reset.mouseover" end="reset.mouseout"/></use>
  </g>
</defs>
<script type="application/ecmascript">
var viewWidth = 1064;
var viewHeight = 792;
</script>
<script type="application/ecmascript" xlink:href="svg.min.js"/>
<svg id="graph" class="graph">
<g id="viewport">
<title>features</title>
<polygon fill="white" stroke="transparent" points="-4,4 -4,-788 1060,-788 1060,4 -4,4"/>
<g id="clust1" class="cluster">
<title>cluster_foundations</title>
<polygon fill="none" stroke="black" stroke-dasharray="5,2" points="8,-485 8,-776 447,-776 447,-485 8,-485"/>
<text text-anchor="middle" x="227.5" y="-760.8" font-family="Times,serif" font-size="14.00">Foundations</text>
</g>
<g id="clust2" class="cluster">
<title>cluster_physics</title>
<polygon fill="none" stroke="black" stroke-dasharray="5,2" points="235,-348 235,-477 640,-477 640,-348 235,-348"/>
<text text-anchor="middle" x="437.5" y="-461.8" font-family="Times,serif" font-size="14.00">Physics</text>
</g>
<g id="clust3" class="cluster">
<title>cluster_io</title>
<polygon fill="none" stroke="black" stroke-dasharray="5,2" points="479,-211 479,-340 855.5,-340 855.5,-211 479,-211"/>
<text text-anchor="middle" x="667.25" y="-324.8" font-family="Times,serif" font-size="14.00">I/O &amp; ecosystem</text>
</g>
<g id="clust4" class="cluster">
<title>cluster_perf_eval</title>
<polygon fill="none" stroke="black" stroke-dasharray="5,2" points="466.5,-485 466.5,-614 669.5,-614 669.5,-485 466.5,-485"/>
<text text-anchor="middle" x="568" y="-598.8" font-family="Times,serif" font-size="14.00">Performance &amp; evaluation</text>
</g>
<g id="clust5" class="cluster">
<title>cluster_ux</title>
<polygon fill="none" stroke="black" stroke-dasharray="5,2" points="278.5,-8 278.5,-137 871,-137 871,-8 278.5,-8"/>
<text text-anchor="middle" x="574.75" y="-121.8" font-family="Times,serif" font-size="14.00">UX</text>
</g>
<g id="clust6" class="cluster">
<title>cluster_perception_control</title>
<polygon fill="none" stroke="black" stroke-dasharray="5,2" points="891,-405 891,-534 1056,-534 1056,-405 891,-405"/>
<text text-anchor="middle" x="973.5" y="-518.8" font-family="Times,serif" font-size="14.00">Perception &amp; control</text>
</g>
<!-- broadphase_bvh -->
<g id="node1" class="node">
<title>broadphase_bvh</title>
<path fill="none" stroke="black" d="M157.5,-745C157.5,-745 51.5,-745 51.5,-745 45.5,-745 39.5,-739 39.5,-733 39.5,-733 39.5,-721 39.5,-721 39.5,-715 45.5,-709 51.5,-709 51.5,-709 157.5,-709 157.5,-709 163.5,-709 169.5,-715 169.5,-721 169.5,-721 169.5,-733 169.5,-733 169.5,-739 163.5,-745 157.5,-745"/>
<text text-anchor="middle" x="104.5" y="-723.3" font-family="Helvetica,sans-Serif" font-size="14.00">broadphase&#45;bvh</text>
</g>
<!-- collider_completeness -->
<g id="node6" class="node">
<title>collider_completeness</title>
<path fill="none" stroke="black" d="M427,-618C427,-618 241,-618 241,-618 235,-618 229,-612 229,-606 229,-606 229,-594 229,-594 229,-588 235,-582 241,-582 241,-582 427,-582 427,-582 433,-582 439,-588 439,-594 439,-594 439,-606 439,-606 439,-612 433,-618 427,-618"/>
<text text-anchor="middle" x="334" y="-596.3" font-family="Helvetica,sans-Serif" font-size="14.00">collider&#45;completeness (new)</text>
</g>
<!-- broadphase_bvh&#45;&gt;collider_completeness -->
<g id="edge4" class="edge">
<title>broadphase_bvh&#45;&gt;collider_completeness</title>
<path fill="none" stroke="#555555" d="M169.52,-709.88C177.58,-706.96 185.59,-703.67 193,-700 234.48,-679.46 277.04,-647.14 304.18,-624.83"/>
<polygon fill="#555555" stroke="#555555" points="306.64,-627.34 312.08,-618.26 302.16,-621.96 306.64,-627.34"/>
</g>
<!-- contact_generation -->
<g id="node2" class="node">
<title>contact_generation</title>
<path fill="none" stroke="black" d="M166.5,-583C166.5,-583 42.5,-583 42.5,-583 36.5,-583 30.5,-577 30.5,-571 30.5,-571 30.5,-559 30.5,-559 30.5,-553 36.5,-547 42.5,-547 42.5,-547 166.5,-547 166.5,-547 172.5,-547 178.5,-553 178.5,-559 178.5,-559 178.5,-571 178.5,-571 178.5,-577 172.5,-583 166.5,-583"/>
<text text-anchor="middle" x="104.5" y="-561.3" font-family="Helvetica,sans-Serif" font-size="14.00">contact&#45;generation</text>
</g>
<!-- contact_generation&#45;&gt;collider_completeness -->
<g id="edge3" class="edge">
<title>contact_generation&#45;&gt;collider_completeness</title>
<path fill="none" stroke="#555555" d="M178.73,-576.27C191.59,-578.24 205.24,-580.34 218.9,-582.45"/>
<polygon fill="#555555" stroke="#555555" points="218.42,-585.91 228.83,-583.97 219.48,-578.99 218.42,-585.91"/>
</g>
<!-- heightmap -->
<g id="node7" class="node">
<title>heightmap</title>
<path fill="none" stroke="black" d="M368,-446C368,-446 300,-446 300,-446 294,-446 288,-440 288,-434 288,-434 288,-422 288,-422 288,-416 294,-410 300,-410 300,-410 368,-410 368,-410 374,-410 380,-416 380,-422 380,-422 380,-434 380,-434 380,-440 374,-446 368,-446"/>
<text text-anchor="middle" x="334" y="-424.3" font-family="Helvetica,sans-Serif" font-size="14.00">heightmap</text>
</g>
<!-- contact_generation&#45;&gt;heightmap -->
<g id="edge1" class="edge">
<title>contact_generation&#45;&gt;heightmap</title>
<path fill="none" stroke="#555555" d="M178.66,-546.94C183.74,-544.34 188.58,-541.38 193,-538 216.79,-519.79 206.86,-501.19 229,-481 243.34,-467.92 261.5,-457.21 278.63,-448.93"/>
<polygon fill="#555555" stroke="#555555" points="280.4,-451.96 288,-444.58 277.46,-445.61 280.4,-451.96"/>
</g>
<!-- articulated_bodies_xpbd -->
<g id="node8" class="node">
<title>articulated_bodies_xpbd</title>
<path fill="none" stroke="black" d="M413,-392C413,-392 255,-392 255,-392 249,-392 243,-386 243,-380 243,-380 243,-368 243,-368 243,-362 249,-356 255,-356 255,-356 413,-356 413,-356 419,-356 425,-362 425,-368 425,-368 425,-380 425,-380 425,-386 419,-392 413,-392"/>
<text text-anchor="middle" x="334" y="-370.3" font-family="Helvetica,sans-Serif" font-size="14.00">articulated&#45;bodies&#45;xpbd</text>
</g>
<!-- contact_generation&#45;&gt;articulated_bodies_xpbd -->
<g id="edge2" class="edge">
<title>contact_generation&#45;&gt;articulated_bodies_xpbd</title>
<path fill="none" stroke="#555555" d="M178.69,-549.1C183.95,-546.02 188.82,-542.36 193,-538 236.56,-492.55 184.42,-445.45 229,-401 230.66,-399.34 232.42,-397.78 234.24,-396.31"/>
<polygon fill="#555555" stroke="#555555" points="236.48,-399.02 242.7,-390.45 232.48,-393.27 236.48,-399.02"/>
</g>
<!-- scene_format -->
<g id="node10" class="node">
<title>scene_format</title>
<path fill="none" stroke="black" d="M637,-308C637,-308 499,-308 499,-308 493,-308 487,-302 487,-296 487,-296 487,-284 487,-284 487,-278 493,-272 499,-272 499,-272 637,-272 637,-272 643,-272 649,-278 649,-284 649,-284 649,-296 649,-296 649,-302 643,-308 637,-308"/>
<text text-anchor="middle" x="568" y="-286.3" font-family="Helvetica,sans-Serif" font-size="14.00">scene&#45;format (URDF)</text>
</g>
<!-- contact_generation&#45;&gt;scene_format -->
<g id="edge10" class="edge">
<title>contact_generation&#45;&gt;scene_format</title>
<path fill="none" stroke="#555555" d="M178.64,-549.67C183.98,-546.48 188.88,-542.63 193,-538 251.32,-472.51 166.22,-405.23 229,-344 293.63,-280.96 400.6,-273.73 476.88,-278.26"/>
<polygon fill="#555555" stroke="#555555" points="476.75,-281.76 486.97,-278.94 477.22,-274.78 476.75,-281.76"/>
</g>
<!-- benchmark_harness -->
<g id="node13" class="node">
<title>benchmark_harness</title>
<path fill="none" stroke="black" d="M633.5,-529C633.5,-529 502.5,-529 502.5,-529 496.5,-529 490.5,-523 490.5,-517 490.5,-517 490.5,-505 490.5,-505 490.5,-499 496.5,-493 502.5,-493 502.5,-493 633.5,-493 633.5,-493 639.5,-493 645.5,-499 645.5,-505 645.5,-505 645.5,-517 645.5,-517 645.5,-523 639.5,-529 633.5,-529"/>
<text text-anchor="middle" x="568" y="-507.3" font-family="Helvetica,sans-Serif" font-size="14.00">benchmark&#45;harness</text>
</g>
<!-- contact_generation&#45;&gt;benchmark_harness -->
<g id="edge11" class="edge">
<title>contact_generation&#45;&gt;benchmark_harness</title>
<path fill="none" stroke="#555555" d="M175.12,-583.11C181.34,-585.72 187.39,-588.68 193,-592 212.19,-603.38 208.32,-618.61 229,-627 318.77,-663.45 371.51,-687.74 447,-627 478.55,-601.61 438.54,-567.3 466.5,-538 470.73,-533.56 475.61,-529.83 480.89,-526.69"/>
<polygon fill="#555555" stroke="#555555" points="482.82,-529.63 490.11,-521.94 479.62,-523.41 482.82,-529.63"/>
</g>
<!-- world_snapshot_restore -->
<g id="node3" class="node">
<title>world_snapshot_restore</title>
<path fill="none" stroke="black" d="M181,-691C181,-691 28,-691 28,-691 22,-691 16,-685 16,-679 16,-679 16,-667 16,-667 16,-661 22,-655 28,-655 28,-655 181,-655 181,-655 187,-655 193,-661 193,-667 193,-667 193,-679 193,-679 193,-685 187,-691 181,-691"/>
<text text-anchor="middle" x="104.5" y="-669.3" font-family="Helvetica,sans-Serif" font-size="14.00">world&#45;snapshot&#45;restore</text>
</g>
<!-- python_bindings -->
<g id="node11" class="node">
<title>python_bindings</title>
<path fill="none" stroke="black" d="M835.5,-255C835.5,-255 728.5,-255 728.5,-255 722.5,-255 716.5,-249 716.5,-243 716.5,-243 716.5,-231 716.5,-231 716.5,-225 722.5,-219 728.5,-219 728.5,-219 835.5,-219 835.5,-219 841.5,-219 847.5,-225 847.5,-231 847.5,-231 847.5,-243 847.5,-243 847.5,-249 841.5,-255 835.5,-255"/>
<text text-anchor="middle" x="782" y="-233.3" font-family="Helvetica,sans-Serif" font-size="14.00">python&#45;bindings</text>
</g>
<!-- world_snapshot_restore&#45;&gt;python_bindings -->
<g id="edge22" class="edge">
<title>world_snapshot_restore&#45;&gt;python_bindings</title>
<path fill="none" stroke="#555555" d="M183.69,-654.75C187.11,-652.2 190.25,-649.3 193,-646 279.57,-542.19 143.96,-449.07 229,-344 343.53,-202.48 584.17,-210.37 706.37,-225.09"/>
<polygon fill="#555555" stroke="#555555" points="706.04,-228.57 716.39,-226.34 706.91,-221.63 706.04,-228.57"/>
</g>
<!-- multi_world -->
<g id="node14" class="node">
<title>multi_world</title>
<path fill="none" stroke="black" d="M603.5,-583C603.5,-583 532.5,-583 532.5,-583 526.5,-583 520.5,-577 520.5,-571 520.5,-571 520.5,-559 520.5,-559 520.5,-553 526.5,-547 532.5,-547 532.5,-547 603.5,-547 603.5,-547 609.5,-547 615.5,-553 615.5,-559 615.5,-559 615.5,-571 615.5,-571 615.5,-577 609.5,-583 603.5,-583"/>
<text text-anchor="middle" x="568" y="-561.3" font-family="Helvetica,sans-Serif" font-size="14.00">multi&#45;world</text>
</g>
<!-- world_snapshot_restore&#45;&gt;multi_world -->
<g id="edge7" class="edge">
<title>world_snapshot_restore&#45;&gt;multi_world</title>
<path fill="none" stroke="#555555" d="M179.92,-654.98C184.59,-652.38 189.01,-649.4 193,-646 220.53,-622.53 198.51,-592.47 229,-573 274.06,-544.23 426.12,-552.35 510.1,-559.43"/>
<polygon fill="#555555" stroke="#555555" points="509.97,-562.93 520.24,-560.31 510.58,-555.96 509.97,-562.93"/>
</g>
<!-- sample_mpc -->
<g id="node20" class="node">
<title>sample_mpc</title>
<path fill="none" stroke="black" d="M1012.5,-449C1012.5,-449 934.5,-449 934.5,-449 928.5,-449 922.5,-443 922.5,-437 922.5,-437 922.5,-425 922.5,-425 922.5,-419 928.5,-413 934.5,-413 934.5,-413 1012.5,-413 1012.5,-413 1018.5,-413 1024.5,-419 1024.5,-425 1024.5,-425 1024.5,-437 1024.5,-437 1024.5,-443 1018.5,-449 1012.5,-449"/>
<text text-anchor="middle" x="973.5" y="-427.3" font-family="Helvetica,sans-Serif" font-size="14.00">sample&#45;mpc</text>
</g>
<!-- world_snapshot_restore&#45;&gt;sample_mpc -->
<g id="edge26" class="edge">
<title>world_snapshot_restore&#45;&gt;sample_mpc</title>
<path fill="none" stroke="#555555" d="M193.28,-677.14C306.62,-679.65 508.42,-674.46 669.5,-618 765.39,-584.39 803.77,-586.19 871,-510 887.38,-491.43 873.08,-475.09 891,-458 897.2,-452.08 904.73,-447.46 912.67,-443.86"/>
<polygon fill="#555555" stroke="#555555" points="914.15,-447.03 922.14,-440.07 911.55,-440.53 914.15,-447.03"/>
</g>
<!-- openmp_parallelization -->
<g id="node4" class="node">
<title>openmp_parallelization</title>
<path fill="none" stroke="black" d="M180.5,-637C180.5,-637 28.5,-637 28.5,-637 22.5,-637 16.5,-631 16.5,-625 16.5,-625 16.5,-613 16.5,-613 16.5,-607 22.5,-601 28.5,-601 28.5,-601 180.5,-601 180.5,-601 186.5,-601 192.5,-607 192.5,-613 192.5,-613 192.5,-625 192.5,-625 192.5,-631 186.5,-637 180.5,-637"/>
<text text-anchor="middle" x="104.5" y="-615.3" font-family="Helvetica,sans-Serif" font-size="14.00">openmp&#45;parallelization</text>
</g>
<!-- openmp_parallelization&#45;&gt;multi_world -->
<g id="edge6" class="edge">
<title>openmp_parallelization&#45;&gt;multi_world</title>
<path fill="none" stroke="#555555" d="M178.07,-600.95C183.33,-598.35 188.38,-595.38 193,-592 215.68,-575.39 204.1,-553.05 229,-540 314.82,-495.03 350.62,-530.07 447,-540 467.92,-542.16 490.56,-546.37 510.49,-550.74"/>
<polygon fill="#555555" stroke="#555555" points="509.81,-554.17 520.33,-552.95 511.35,-547.34 509.81,-554.17"/>
</g>
<!-- convex_hull -->
<g id="node5" class="node">
<title>convex_hull</title>
<path fill="none" stroke="black" d="M162.5,-529C162.5,-529 46.5,-529 46.5,-529 40.5,-529 34.5,-523 34.5,-517 34.5,-517 34.5,-505 34.5,-505 34.5,-499 40.5,-493 46.5,-493 46.5,-493 162.5,-493 162.5,-493 168.5,-493 174.5,-499 174.5,-505 174.5,-505 174.5,-517 174.5,-517 174.5,-523 168.5,-529 162.5,-529"/>
<text text-anchor="middle" x="104.5" y="-507.3" font-family="Helvetica,sans-Serif" font-size="14.00">convex&#45;hull (new)</text>
</g>
<!-- heightmap&#45;&gt;scene_format -->
<g id="edge9" class="edge">
<title>heightmap&#45;&gt;scene_format</title>
<path fill="none" stroke="#555555" d="M380.11,-427.06C402.68,-424.34 428.96,-417.43 447,-401 466.79,-382.97 449.18,-364.41 466.5,-344 477.48,-331.06 492.38,-320.73 507.33,-312.71"/>
<polygon fill="#555555" stroke="#555555" points="509.27,-315.65 516.62,-308.02 506.12,-309.41 509.27,-315.65"/>
</g>
<!-- heightmap&#45;&gt;benchmark_harness -->
<g id="edge13" class="edge">
<title>heightmap&#45;&gt;benchmark_harness</title>
<path fill="none" stroke="#555555" d="M376.96,-446.07C402.6,-456.83 436.18,-470.39 466.5,-481 475.15,-484.03 484.27,-487.02 493.36,-489.88"/>
<polygon fill="#555555" stroke="#555555" points="492.59,-493.31 503.18,-492.92 494.67,-486.62 492.59,-493.31"/>
</g>
<!-- actuator_models -->
<g id="node9" class="node">
<title>actuator_models</title>
<path fill="none" stroke="black" d="M620,-438C620,-438 516,-438 516,-438 510,-438 504,-432 504,-426 504,-426 504,-414 504,-414 504,-408 510,-402 516,-402 516,-402 620,-402 620,-402 626,-402 632,-408 632,-414 632,-414 632,-426 632,-426 632,-432 626,-438 620,-438"/>
<text text-anchor="middle" x="568" y="-416.3" font-family="Helvetica,sans-Serif" font-size="14.00">actuator&#45;models</text>
</g>
<!-- articulated_bodies_xpbd&#45;&gt;actuator_models -->
<g id="edge14" class="edge">
<title>articulated_bodies_xpbd&#45;&gt;actuator_models</title>
<path fill="none" stroke="#555555" d="M425.03,-391.85C447.89,-396.38 472.18,-401.2 494.07,-405.54"/>
<polygon fill="#555555" stroke="#555555" points="493.46,-408.99 503.95,-407.5 494.82,-402.12 493.46,-408.99"/>
</g>
<!-- articulated_bodies_xpbd&#45;&gt;scene_format -->
<g id="edge8" class="edge">
<title>articulated_bodies_xpbd&#45;&gt;scene_format</title>
<path fill="none" stroke="#555555" d="M378.55,-355.91C404.03,-345.55 436.9,-332.55 466.5,-322 476.73,-318.35 487.62,-314.68 498.31,-311.18"/>
<polygon fill="#555555" stroke="#555555" points="499.62,-314.44 508.05,-308.03 497.46,-307.78 499.62,-314.44"/>
</g>
<!-- articulated_bodies_xpbd&#45;&gt;python_bindings -->
<g id="edge21" class="edge">
<title>articulated_bodies_xpbd&#45;&gt;python_bindings</title>
<path fill="none" stroke="#555555" d="M425.42,-362.56C517.51,-350.28 649.56,-330.69 669.5,-317 692.09,-301.49 679.69,-281.23 701,-264 703.04,-262.35 705.2,-260.79 707.43,-259.33"/>
<polygon fill="#555555" stroke="#555555" points="709.48,-262.18 716.39,-254.15 705.98,-256.13 709.48,-262.18"/>
</g>
<!-- articulated_bodies_xpbd&#45;&gt;benchmark_harness -->
<g id="edge12" class="edge">
<title>articulated_bodies_xpbd&#45;&gt;benchmark_harness</title>
<path fill="none" stroke="#555555" d="M425.12,-385.96C433.2,-389.8 440.7,-394.71 447,-401 472.91,-426.84 441.29,-454.47 466.5,-481 470.9,-485.63 475.99,-489.56 481.49,-492.89"/>
<polygon fill="#555555" stroke="#555555" points="479.96,-496.04 490.43,-497.64 483.24,-489.86 479.96,-496.04"/>
</g>
<!-- test_app_interactivity -->
<g id="node18" class="node">
<title>test_app_interactivity</title>
<path fill="none" stroke="black" d="M851,-106C851,-106 713,-106 713,-106 707,-106 701,-100 701,-94 701,-94 701,-82 701,-82 701,-76 707,-70 713,-70 713,-70 851,-70 851,-70 857,-70 863,-76 863,-82 863,-82 863,-94 863,-94 863,-100 857,-106 851,-106"/>
<text text-anchor="middle" x="782" y="-84.3" font-family="Helvetica,sans-Serif" font-size="14.00">test&#45;app&#45;interactivity</text>
</g>
<!-- articulated_bodies_xpbd&#45;&gt;test_app_interactivity -->
<g id="edge18" class="edge">
<title>articulated_bodies_xpbd&#45;&gt;test_app_interactivity</title>
<path fill="none" stroke="#555555" d="M344.83,-355.76C363.96,-321.89 409.36,-248.9 466.5,-207 506.57,-177.62 632.4,-134.7 712.23,-109.23"/>
<polygon fill="#555555" stroke="#555555" points="713.73,-112.43 722.21,-106.06 711.62,-105.75 713.73,-112.43"/>
</g>
<!-- articulated_bodies_xpbd&#45;&gt;sample_mpc -->
<g id="edge27" class="edge">
<title>articulated_bodies_xpbd&#45;&gt;sample_mpc</title>
<path fill="none" stroke="#555555" d="M425.27,-377.46C492.66,-380.45 586.95,-385.49 669.5,-393 753.97,-400.69 851.21,-413.61 912.26,-422.22"/>
<polygon fill="#555555" stroke="#555555" points="912.09,-425.73 922.48,-423.67 913.07,-418.8 912.09,-425.73"/>
</g>
<!-- scene_format&#45;&gt;actuator_models -->
<g id="edge15" class="edge">
<title>scene_format&#45;&gt;actuator_models</title>
<path fill="none" stroke="#555555" d="M568,-308.03C568,-335.82 568,-363.6 568,-391.39"/>
<polygon fill="#555555" stroke="#555555" points="564.5,-391.63 568,-401.63 571.5,-391.63 564.5,-391.63"/>
</g>
<!-- scene_format&#45;&gt;python_bindings -->
<g id="edge20" class="edge">
<title>scene_format&#45;&gt;python_bindings</title>
<path fill="none" stroke="#555555" d="M641.07,-271.98C662.11,-266.72 685.13,-260.97 706.33,-255.67"/>
<polygon fill="#555555" stroke="#555555" points="707.39,-259.01 716.24,-253.19 705.69,-252.22 707.39,-259.01"/>
</g>
<!-- ros2_integration -->
<g id="node12" class="node">
<title>ros2_integration</title>
<path fill="none" stroke="black" d="M834,-309C834,-309 730,-309 730,-309 724,-309 718,-303 718,-297 718,-297 718,-285 718,-285 718,-279 724,-273 730,-273 730,-273 834,-273 834,-273 840,-273 846,-279 846,-285 846,-285 846,-297 846,-297 846,-303 840,-309 834,-309"/>
<text text-anchor="middle" x="782" y="-287.3" font-family="Helvetica,sans-Serif" font-size="14.00">ros2&#45;integration</text>
</g>
<!-- scene_format&#45;&gt;ros2_integration -->
<g id="edge23" class="edge">
<title>scene_format&#45;&gt;ros2_integration</title>
<path fill="none" stroke="#555555" d="M649.15,-290.38C668.43,-290.47 688.93,-290.57 707.87,-290.66"/>
<polygon fill="#555555" stroke="#555555" points="707.9,-294.16 717.92,-290.7 707.93,-287.16 707.9,-294.16"/>
</g>
<!-- scene_format&#45;&gt;test_app_interactivity -->
<g id="edge17" class="edge">
<title>scene_format&#45;&gt;test_app_interactivity</title>
<path fill="none" stroke="#555555" d="M592.87,-271.69C613.7,-255.39 644.43,-230.55 669.5,-207 702.09,-176.39 736.9,-138.27 758.79,-113.54"/>
<polygon fill="#555555" stroke="#555555" points="761.44,-115.83 765.42,-106.01 756.18,-111.2 761.44,-115.83"/>
</g>
<!-- python_bindings&#45;&gt;sample_mpc -->
<g id="edge24" class="edge">
<title>python_bindings&#45;&gt;sample_mpc</title>
<path fill="none" stroke="#555555" d="M847.73,-250.82C856.04,-254.28 864.06,-258.6 871,-264 918.24,-300.75 948.57,-366.16 962.87,-403.27"/>
<polygon fill="#555555" stroke="#555555" points="959.7,-404.8 966.47,-412.94 966.26,-402.35 959.7,-404.8"/>
</g>
<!-- multi_world&#45;&gt;sample_mpc -->
<g id="edge25" class="edge">
<title>multi_world&#45;&gt;sample_mpc</title>
<path fill="none" stroke="#555555" d="M615.52,-553.38C632.59,-548.88 652.01,-543.5 669.5,-538 769.35,-506.62 792.09,-492.24 891,-458 897.97,-455.59 905.3,-453.1 912.57,-450.65"/>
<polygon fill="#555555" stroke="#555555" points="914.06,-453.84 922.43,-447.35 911.84,-447.21 914.06,-453.84"/>
</g>
<!-- ui_overhaul -->
<g id="node15" class="node">
<title>ui_overhaul</title>
<path fill="none" stroke="black" d="M369.5,-106C369.5,-106 298.5,-106 298.5,-106 292.5,-106 286.5,-100 286.5,-94 286.5,-94 286.5,-82 286.5,-82 286.5,-76 292.5,-70 298.5,-70 298.5,-70 369.5,-70 369.5,-70 375.5,-70 381.5,-76 381.5,-82 381.5,-82 381.5,-94 381.5,-94 381.5,-100 375.5,-106 369.5,-106"/>
<text text-anchor="middle" x="334" y="-84.3" font-family="Helvetica,sans-Serif" font-size="14.00">ui&#45;overhaul</text>
</g>
<!-- visualizer_refactor -->
<g id="node16" class="node">
<title>visualizer_refactor</title>
<path fill="none" stroke="black" d="M626,-106C626,-106 510,-106 510,-106 504,-106 498,-100 498,-94 498,-94 498,-82 498,-82 498,-76 504,-70 510,-70 510,-70 626,-70 626,-70 632,-70 638,-76 638,-82 638,-82 638,-94 638,-94 638,-100 632,-106 626,-106"/>
<text text-anchor="middle" x="568" y="-84.3" font-family="Helvetica,sans-Serif" font-size="14.00">visualizer&#45;refactor</text>
</g>
<!-- ui_overhaul&#45;&gt;visualizer_refactor -->
<g id="edge5" class="edge">
<title>ui_overhaul&#45;&gt;visualizer_refactor</title>
<path fill="none" stroke="#555555" d="M381.67,-88C412.02,-88 452.37,-88 487.67,-88"/>
<polygon fill="#555555" stroke="#555555" points="487.96,-91.5 497.96,-88 487.96,-84.5 487.96,-91.5"/>
</g>
<!-- visualizer_refactor&#45;&gt;test_app_interactivity -->
<g id="edge16" class="edge">
<title>visualizer_refactor&#45;&gt;test_app_interactivity</title>
<path fill="none" stroke="#555555" d="M638.12,-88C654.89,-88 673.06,-88 690.65,-88"/>
<polygon fill="#555555" stroke="#555555" points="690.92,-91.5 700.92,-88 690.92,-84.5 690.92,-91.5"/>
</g>
<!-- rendering -->
<g id="node17" class="node">
<title>rendering</title>
<path fill="none" stroke="black" d="M598,-52C598,-52 538,-52 538,-52 532,-52 526,-46 526,-40 526,-40 526,-28 526,-28 526,-22 532,-16 538,-16 538,-16 598,-16 598,-16 604,-16 610,-22 610,-28 610,-28 610,-40 610,-40 610,-46 604,-52 598,-52"/>
<text text-anchor="middle" x="568" y="-30.3" font-family="Helvetica,sans-Serif" font-size="14.00">rendering</text>
</g>
<!-- rendering&#45;&gt;test_app_interactivity -->
<g id="edge19" class="edge">
<title>rendering&#45;&gt;test_app_interactivity</title>
<path fill="none" stroke="#555555" d="M610.13,-44.48C635.66,-50.98 669.35,-59.56 700.07,-67.39"/>
<polygon fill="#555555" stroke="#555555" points="699.37,-70.82 709.92,-69.9 701.1,-64.04 699.37,-70.82"/>
</g>
<!-- sensors_gpu -->
<g id="node19" class="node">
<title>sensors_gpu</title>
<path fill="none" stroke="black" d="M1013,-503C1013,-503 934,-503 934,-503 928,-503 922,-497 922,-491 922,-491 922,-479 922,-479 922,-473 928,-467 934,-467 934,-467 1013,-467 1013,-467 1019,-467 1025,-473 1025,-479 1025,-479 1025,-491 1025,-491 1025,-497 1019,-503 1013,-503"/>
<text text-anchor="middle" x="973.5" y="-481.3" font-family="Helvetica,sans-Serif" font-size="14.00">sensors&#45;gpu</text>
</g>
</g>
</svg>

<g id="navigator" transform="translate(0 0)" fill="#404254">
  <rect fill="#f2f5e9" fill-opacity="0.5" stroke="#606060" stroke-width=".5" x="0" y="0" width="60" height="60"/>
  <use id="zoomplus" xlink:href="#zoomPlus" x="17" y="9" onmousedown="handleZoom(evt,'in')"/>
  <use id="zoomminus" xlink:href="#zoomMin" x="42" y="9" onmousedown="handleZoom(evt,'out')"/>
  <use id="reset" xlink:href="#resetDef" x="30" y="36" onmousedown="handleReset()"/>
   <use id="arrowup" xlink:href="#arrowUp" x="0" y="0" onmousedown="handlePan(0,-1)"/>
  <use id="arrowright" xlink:href="#arrowRight" x="0" y="0" onmousedown="handlePan(1,0)"/>
  <use id="arrowdown" xlink:href="#arrowDown" x="0" y="0" onmousedown="handlePan(0,1)"/>
  <use id="arrowleft" xlink:href="#arrowLeft" x="0" y="0" onmousedown="handlePan(-1,0)"/>
</g>
<svg viewBox="0 0 15 15" width="100%" height="30px" preserveAspectRatio="xMaxYMin meet">
 <g id="arrow_out" transform="scale(0.3 0.3)">
  <a xlink:href="dot_dependencies_org.svg" target="_base">
   <rect id="button" ry="5" rx="5" y="6" x="6" height="38" width="38"
        fill="#f2f5e9" fill-opacity="0.5" stroke="#606060" stroke-width="1.0"/>
   <path id="arrow"
     d="M 11.500037,31.436501 C 11.940474,20.09759 22.043105,11.32322 32.158766,21.979434 L 37.068811,17.246167 C 37.068811,17.246167 37.088388,32 37.088388,32 L 22.160133,31.978069 C 22.160133,31.978069 26.997745,27.140456 26.997745,27.140456 C 18.528582,18.264221 13.291696,25.230495 11.500037,31.436501 z"
     style="fill:#404040;"/>
  </a>
 </g>
</svg>

<style type='text/css'>
<![CDATA[
[data-mouse-over-selected='false'] { opacity: 0.7; }
[data-mouse-over-selected='true']  { opacity: 1.0; }
]]>
</style>
<script type="application/ecmascript"><![CDATA[
document.addEventListener('DOMContentLoaded', (event) => {
  highlightEdges();
  highlightAdjacentNodes();
});
]]></script>
</svg>
